<svg width="200" height="200" viewBox="0 0 200 200" xmlns="http://www.w3.org/2000/svg">
        <ellipse cx="100" cy="110" rx="30" ry="40" fill="none" stroke="black" stroke-width="2"/>
        <ellipse cx="100" cy="60" rx="25" ry="30" fill="none" stroke="black" stroke-width="2"/>
        <circle cx="90" cy="50" r="3" fill="black"/>
        <circle cx="110" cy="50" r="3" fill="black"/>
        <path d="M 95 60 Q 100 65 105 60" fill="none" stroke="orange" stroke-width="2"/>
        <ellipse cx="100" cy="100" rx="15" ry="25" fill="none" stroke="white" stroke-width="2"/>
        <path d="M 85 140 Q 80 160 85 180" fill="none" stroke="black" stroke-width="2"/>
        <path d="M 115 140 Q 120 160 115 180" fill="none" stroke="black" stroke-width="2"/>
        <path d="M 70 80 Q 50 70 60 50 Q 70 60 80 50" fill="none" stroke="black" stroke-width="2"/>
        <path d="M 130 80 Q 150 70 140 50 Q 130 60 120 50" fill="none" stroke="black" stroke-width="2"/>
        <text x="100" y="190" text-anchor="middle" font-family="Arial" font-size="12">Pingvin</text>
    </svg>